# xmcd
#
# Track frame offsets: 
#        187
#        17150
#        39875
#        69875
#        85175
#        100100
#        153275
#        165950
#
# Disc length: 2529 seconds
#
# Revision: 4
# Processed by: cddbd v1.5.2PL0 Copyright (c) Steve Scherf et al.
# Submitted via: ExactAudioCopy v0.99pb4
#
DISCID=4909df08
DTITLE=Charlie Musselwhite - Tennessee Woman
DYEAR=1969
DGENRE=Blues
TTITLE0=Tennessee Woman
TTITLE1=Blue Feeling Today
TTITLE2=A Nice Day For Something
TTITLE3=Everybody Needs Somebody
TTITLE4=I Don't Play, I'll Be Your Man Some Day
TTITLE5=Christo Redemptor
TTITLE6=Little By Little
TTITLE7=I'm A Stranger
EXTD=
EXTT0=
EXTT1=
EXTT2=
EXTT3=
EXTT4=
EXTT5=
EXTT6=
EXTT7=
PLAYORDER=
